<svg width="29" height="20" viewBox="0 0 29 20" fill="none" xmlns="http://www.w3.org/2000/svg">
<path d="M1.1499 14.4295V14.8614C1.1509 15.9177 1.57119 16.9305 2.31847 17.677C3.06574 18.4236 4.0789 18.8429 5.13521 18.8429H23.1647C24.221 18.8429 25.2341 18.4236 25.9813 17.677C26.7286 16.9305 27.1489 15.9177 27.1499 14.8614V5.03535C27.1499 4.512 27.0468 3.99376 26.8465 3.51025C26.6463 3.02673 26.3527 2.5874 25.9826 2.21733C25.6126 1.84727 25.1732 1.55368 24.6897 1.3534C24.2062 1.15312 23.688 1.05005 23.1647 1.05005H5.13521C4.61186 1.05005 4.09362 1.15312 3.6101 1.3534C3.12659 1.55368 2.68725 1.84727 2.31719 2.21733C1.94712 2.5874 1.65353 3.02673 1.45325 3.51025C1.25298 3.99376 1.1499 4.512 1.1499 5.03535V14.3806M1.15741 5.34334H27.1386M4.80463 10.1625H6.96065M4.80463 13.8923H10.0182M16.8093 13.8923H18.9465M21.6284 13.8923H23.7656" stroke="#E95322" stroke-width="2" stroke-linecap="round" stroke-linejoin="round"/>
</svg>
